<svg
  width="31"
  height="31"
  viewBox="0 0 31 31"
  fill="none"
  xmlns="http://www.w3.org/2000/svg"
>
  <g clip-path="url(#clip0_1_149)">
    <path
      d="M21.7443 0.627136C22.9478 0.627279 23.9278 1.60722 23.9279 2.81073V28.1887C23.9279 29.3924 22.9476 30.3732 21.7434 30.3732H9.25605C8.05237 30.3732 7.07153 29.3928 7.07148 28.1887V2.81073C7.07161 1.60713 8.05242 0.627136 9.25605 0.627136H21.7443ZM8.06367 28.1887C8.06367 28.846 8.59867 29.381 9.25605 29.381H21.7443C22.4016 29.3809 22.9367 28.846 22.9367 28.1887V24.424H8.06367V28.1887ZM15.5002 24.9191C16.5938 24.9192 17.4836 25.8089 17.4836 26.9025C17.4836 27.9961 16.5938 28.8859 15.5002 28.8859C14.4065 28.8859 13.5168 27.9962 13.5168 26.9025C13.5168 25.8089 14.4065 24.9191 15.5002 24.9191ZM15.5002 25.9113C14.9534 25.9113 14.509 26.3557 14.509 26.9025C14.509 27.4494 14.9534 27.8937 15.5002 27.8937C16.047 27.8937 16.4914 27.4493 16.4914 26.9025C16.4914 26.3557 16.047 25.9114 15.5002 25.9113ZM8.06367 23.4318H22.9367V4.59296H8.06367V23.4318ZM2.30683 2.89178C2.50065 2.69825 2.81424 2.69817 3.00801 2.89178C3.20176 3.08554 3.20158 3.39909 3.00801 3.59296C1.15534 5.44562 1.15534 8.45954 3.00801 10.3117C3.20178 10.5055 3.20174 10.819 3.00801 11.0129C2.91137 11.1095 2.78429 11.1584 2.65742 11.1584C2.53052 11.1584 2.4035 11.1095 2.30683 11.0129C0.0679694 8.77401 0.0679694 5.13065 2.30683 2.89178ZM27.9924 2.89178C28.1862 2.69828 28.4998 2.69814 28.6936 2.89178C30.9324 5.1306 30.9323 8.7745 28.6936 11.0129C28.5969 11.1095 28.4698 11.1583 28.343 11.1584C28.2161 11.1584 28.089 11.1095 27.9924 11.0129C27.7985 10.819 27.7985 10.5055 27.9924 10.3117C29.8444 8.45903 29.8445 5.44508 27.9924 3.59296C27.7986 3.39911 27.7986 3.0856 27.9924 2.89178ZM25.9045 4.02069C26.0983 3.82685 26.4118 3.82685 26.6057 4.02069C27.4068 4.82085 27.8469 5.88739 27.8469 7.02167C27.8468 8.15585 27.4062 9.22156 26.6057 10.0217C26.509 10.1183 26.382 10.1672 26.2551 10.1672C26.1282 10.1672 26.0012 10.1183 25.9045 10.0217C25.7108 9.82781 25.7107 9.51429 25.9045 9.3205C26.5176 8.70729 26.8556 7.89111 26.8557 7.02167C26.8557 6.15213 26.5177 5.33512 25.9045 4.72186C25.7107 4.52805 25.7107 4.21454 25.9045 4.02069ZM4.39472 3.88397C4.58857 3.69019 4.90207 3.69015 5.0959 3.88397C5.28889 4.07782 5.28907 4.3919 5.0959 4.58514C4.48218 5.19836 4.14477 6.01447 4.14472 6.88397C4.14472 7.75354 4.48264 8.57052 5.0959 9.18378C5.28952 9.37754 5.28944 9.69113 5.0959 9.88495C4.99932 9.98152 4.8721 10.0304 4.74531 10.0305C4.61845 10.0305 4.49138 9.98153 4.39472 9.88495C3.59407 9.08429 3.15254 8.01828 3.15254 6.88397C3.15258 5.74973 3.59411 4.68409 4.39472 3.88397ZM9.25605 1.61835C8.59875 1.61835 8.0638 2.15346 8.06367 2.81073V3.60175H22.9367V2.81073C22.9366 2.15346 22.4012 1.61835 21.7434 1.61835H9.25605ZM15.5002 2.11444C15.7743 2.11454 15.9953 2.33644 15.9953 2.61053C15.9951 2.88448 15.7742 3.10555 15.5002 3.10565H13.5168C13.2428 3.10557 13.0219 2.88449 13.0217 2.61053C13.0217 2.33643 13.2427 2.11453 13.5168 2.11444H15.5002ZM17.4836 2.11444C17.7576 2.11467 17.9787 2.33652 17.9787 2.61053C17.9785 2.8844 17.7574 3.10543 17.4836 3.10565H16.9875C16.7135 3.10565 16.4916 2.88454 16.4914 2.61053C16.4914 2.33638 16.7133 2.11444 16.9875 2.11444H17.4836Z"
      fill="#DC7000"
    />
  </g>
  <defs>
    <clipPath id="clip0_1_149">
      <rect
        width="29.7458"
        height="29.7458"
        fill="white"
        transform="translate(0.627197 0.627136)"
      />
    </clipPath>
  </defs>
</svg>
