<svg width="30" height="24" viewBox="0 0 30 24" fill="none" xmlns="http://www.w3.org/2000/svg">
<path d="M27.7203 0.584686H2.3813C1.46863 0.584686 0.72876 1.32455 0.72876 2.23723V22.0677C0.72876 22.9804 1.46863 23.7203 2.3813 23.7203H27.7203C28.633 23.7203 29.3728 22.9804 29.3728 22.0677V2.23723C29.3728 1.32455 28.633 0.584686 27.7203 0.584686ZM15.0508 11.5267L9.05151 8.29655L15.0508 5.06638L21.0501 8.29655L15.0508 11.5267ZM21.661 9.21867V15.6779L15.6016 18.9422V12.483L21.661 9.21867ZM14.4999 12.483V18.9422L8.44062 15.6779V9.21867L14.4999 12.483ZM1.83045 2.23723C1.83045 1.933 2.07708 1.68638 2.3813 1.68638H14.4999V4.11011L7.62867 7.81181C7.62151 7.81566 7.61325 7.81731 7.60609 7.82172C7.43952 7.92179 7.338 8.10223 7.33893 8.29655V12.9138L1.83045 15.668V2.23723ZM28.2711 22.0677C28.2711 22.372 28.0245 22.6186 27.7203 22.6186H2.3813C2.07708 22.6186 1.83045 22.372 1.83045 22.0677V16.8997L7.33893 14.1454V16.0084C7.33904 16.211 7.45031 16.3971 7.62867 16.4932L14.7897 20.3491C14.9527 20.4368 15.1489 20.4368 15.3119 20.3491L22.4729 16.4932C22.6513 16.3971 22.7626 16.211 22.7627 16.0084V14.1454L28.2711 16.8997V22.0677ZM28.2711 15.668L22.7627 12.9138V8.29655C22.7626 8.10279 22.6607 7.92332 22.4944 7.82392C22.4872 7.81952 22.479 7.81786 22.4718 7.81401L15.6016 4.11011V1.68638H27.7203C28.0245 1.68638 28.2711 1.933 28.2711 2.23723V15.668Z" fill="#DC7000"/>
</svg>
